<?xml version="1.0" encoding="utf-8"?>
<!-- Generator: Adobe Illustrator 24.0.2, SVG Export Plug-In . SVG Version: 6.00 Build 0)  -->
<svg version="1.1" id="Capa_1" xmlns="http://www.w3.org/2000/svg" xmlns:xlink="http://www.w3.org/1999/xlink" x="0px" y="0px"
	 viewBox="0 0 200 131.84" style="enable-background:new 0 0 200 131.84;" xml:space="preserve">
<style type="text/css">
	.st0{fill:#DA1C5C;}
	.st1{stroke:#000000;stroke-width:0.5;stroke-miterlimit:10;}
</style>
<g>
	<g>
		<g>
			<path d="M106.09,40.22c0.08-0.18,0.16-0.36,0.24-0.54c0.45-0.96-3.24-1.3-3.69-0.38c-2.77,5.67-4.66,11.68-6.86,17.58
				c-1.04,2.8-2.13,5.58-3.54,8.22c-0.74,1.38-1.83,3.61-3.21,5.24c-0.24-1.57-0.16-3.46-0.21-4.32c-0.16-2.81-0.23-5.65-0.27-8.46
				c-0.08-5.65,0.28-11.32,0.63-16.96c0.35-5.65,0.79-11.3,0.82-16.97c0.02-4.9-0.35-10.91-2.95-15.21
				c-2.25-3.72-7.06-2.71-9.48,0.25c-3.02,3.68-5.35,8.02-7.39,12.3c-3.23,6.79-5.64,13.92-8.27,20.96
				c-1.49-0.25-2.87-0.86-3.92-2.16c-0.98-1.2-1.35-2.71-1.25-4.25c0.05-0.74,0.2-1.5,0.49-2.18c0.13-0.31,1.24-1.93,1.22-1.94
				c0.77,0.41,1.86,0.49,2.7,0.26c0.36-0.1,1.52-0.56,0.71-1c-3.21-1.74-7.5-0.66-8.73,2.95c-1.35,3.96,0.77,7.58,4.51,9.04
				c1.18,0.46,2.42,0.73,3.68,0.88c-0.64,1.69-1.3,3.38-1.99,5.06c-1.04,2.53-2.15,5.03-3.38,7.47c-0.54,1.07-1.06,2.17-1.72,3.16
				c-0.3,0.45-0.64,0.91-1.03,1.29c-0.78,0.75-0.82,0.28-1.31-0.52c-1.45-2.4-2.01-5.68-2.37-8.42c-0.41-3.16-0.34-6.32,0.13-9.47
				c0.13-0.86-3.61-1.09-3.78,0c-0.53,3.49-0.57,7.02,0,10.51c0.44,2.71,1.05,6.76,3.13,8.77c1.58,1.52,4.42,1.6,6.32,0.68
				c2.46-1.19,3.63-4.14,4.77-6.45c1.92-3.9,3.55-7.92,5.09-11.98c1.96-0.11,3.91-0.42,5.75-0.74c2.68-0.46,5.34-1.1,8.01-1.6
				c-0.56,4.55-1.01,9.1-1.13,13.7c-0.15,5.89-0.57,15.7,5.76,18.91c1.73,0.88,3.99,1,5.86,0.57c1.77-0.4,2.71-1.49,3.7-2.91
				c2.05-2.96,3.48-6.04,4.84-9.37c2.95-7.22,4.87-14.82,8.13-21.91C106.07,40.25,106.08,40.23,106.09,40.22z M81.65,21.41
				c-0.66,3.78-1.11,7.64-1.63,11.44c-0.3,2.23-0.61,4.45-0.9,6.68c-3.99,0.67-7.92,1.69-11.96,2.24c-0.46,0.06-0.92,0.12-1.4,0.17
				c2.74-7.32,5.27-14.72,8.74-21.73c1.39-2.8,2.92-5.53,4.67-8.12c0.84-1.25,1.7-2.61,2.76-3.69c0.09-0.09,0.2-0.21,0.31-0.33
				c0.04,0.12,0.14,0.28,0.22,0.56c0.23,0.81,0.32,1.67,0.37,2.5C83.03,14.57,82.24,18.06,81.65,21.41z"/>
		</g>
		<g>
			<path d="M184.43,65.77c-3.3,4.47-6.15,9.23-9.35,13.76c-1.54,2.18-3.16,4.27-4.98,6.22c-1.04,1.11-2.13,2.25-3.33,3.19
				c-0.2,0.16-0.42,0.31-0.63,0.46c-0.1-1.39,0.06-2.94,0.01-3.89c-0.16-3.13-0.11-6.29-0.05-9.41c0.12-6.5,0.41-13.06-0.01-19.55
				c-0.29-4.42-1.17-12.86-7.58-11.66c-2.39,0.45-4.04,2.98-5.41,4.8c-1.6,2.13-2.99,4.41-4.27,6.74c-1.4,2.56-2.68,5.19-3.97,7.81
				c0-0.33-0.01-0.66-0.02-0.98c-0.03-3.66,0.1-7.32,0.18-10.98c0.07-3.31,0.19-7.41-1.1-10.53c-1.02-2.47-2.85-5.01-5.7-5.18
				c-3.13-0.19-4.79,1.84-5.89,4.53c-1.22,3-2.11,6.13-2.83,9.28c-1.47,6.47-2.17,13.08-3.31,19.61c-0.66,3.77-1.46,7.53-2.64,11.18
				c-0.58,1.78-1.29,4.31-2.44,6.39c-0.03-1.61-0.15-3.22-0.16-4.76c-0.03-3.83,0.02-7.67,0.02-11.5c0-7.73,0.49-15.67-0.28-23.37
				c-0.55-5.56-1.89-13.93-8.9-14.16c-3.89-0.12-8.21,2.59-9.45,6.29c0.47-0.15,1-0.23,1.57-0.23c0.82,0,1.53,0.18,2.14,0.46
				c0.02-0.07,0.05-0.14,0.1-0.2c0.12-0.23,0.27-0.45,0.43-0.66c0.09-0.13,0.18-0.26,0.27-0.39c0.06-0.08,0.12-0.14,0.19-0.21
				c0.03-0.05,0.06-0.08,0.1-0.12c0.02-0.05,0.05-0.1,0.09-0.13c0.21-0.35,0.44-0.69,0.71-1c0.83-0.94,2.75-2.76,4.15-2
				c1.13,0.6,1.26,2.07,1.29,3.19c0.2,5.96-0.68,12.1-1.15,18.04c-0.5,6.35-1,12.71-1.2,19.08c-0.1,3.07-0.17,6.13-0.23,9.2
				c-0.06,3.28-0.44,6.59,1.1,9.61c0.86,1.68,7.18,1.7,8.02,0c0.48-0.99,0.78-2.04,0.95-3.11c2.08-1.07,3.23-2.93,4.22-5.05
				c1.23-2.63,2.19-5.4,2.97-8.19c1.67-5.96,2.5-12.1,3.48-18.19c1.01-6.22,2.13-12.53,4.52-18.39c0.25-0.62,0.52-1.24,0.85-1.83
				c0.05-0.1,0.35-0.51,0.65-0.92c0.04,0.2,0.1,0.43,0.11,0.54c0.04,0.85-0.24,1.7-0.41,2.52c-0.65,3.25-1.29,6.55-1.71,9.83
				c-0.49,3.9-1,7.78-1.11,11.71c-0.05,1.82,0,3.64,0.26,5.44c0.31,2.16,1.47,3.86,2.52,5.74c0.78,1.4,6.7,1.54,6.94-0.35
				c0.11-0.87,0.31-1.7,0.48-2.53c2.44-4.21,4.48-8.62,6.75-12.92c1.2-2.28,2.47-4.53,3.92-6.67c0.69-1.02,1.41-2.02,2.18-2.98
				c0.13-0.16,0.29-0.37,0.46-0.6c-0.31,2.38-0.86,5.54-0.92,5.92c-0.49,3.36-0.88,6.77-1.21,10.15
				c-0.66,6.61-1.32,13.43-0.55,20.06c0.32,2.8,1.48,5.41,3.72,7.2c2.13,1.7,5.9,1.99,8.33,0.77c2.05-1.03,3.82-3.27,5.38-4.91
				c1.86-1.95,3.5-4.09,5.09-6.27c3.68-5.04,6.79-10.47,10.47-15.52C188.83,65.4,185.11,64.84,184.43,65.77z"/>
		</g>
	</g>
	<g>
		<g>
			<path class="st0" d="M109.79,39.22c0.08-0.18,0.16-0.36,0.24-0.54c0.45-0.96-3.24-1.3-3.69-0.38
				c-2.77,5.67-4.66,11.68-6.86,17.58c-1.04,2.8-2.13,5.58-3.54,8.22c-0.74,1.38-1.83,3.61-3.21,5.24
				c-0.24-1.57-0.16-3.46-0.21-4.32c-0.16-2.81-0.23-5.65-0.27-8.46c-0.08-5.65,0.28-11.32,0.63-16.96
				c0.35-5.65,0.79-11.3,0.82-16.97c0.02-4.9-0.35-10.91-2.95-15.21c-2.25-3.72-7.06-2.71-9.48,0.25c-3.02,3.68-5.35,8.02-7.39,12.3
				c-3.23,6.79-5.64,13.92-8.27,20.96c-1.49-0.25-2.87-0.86-3.92-2.16c-0.98-1.2-1.35-2.71-1.25-4.25c0.05-0.74,0.2-1.5,0.49-2.18
				c0.13-0.31,1.24-1.93,1.22-1.94c0.77,0.41,1.86,0.49,2.7,0.26c0.36-0.1,1.52-0.56,0.71-1c-3.21-1.74-7.5-0.66-8.73,2.95
				c-1.35,3.96,0.77,7.58,4.51,9.04c1.18,0.46,2.42,0.73,3.68,0.88c-0.64,1.69-1.3,3.38-1.99,5.06c-1.04,2.53-2.15,5.03-3.38,7.47
				c-0.54,1.07-1.06,2.17-1.72,3.16c-0.3,0.45-0.64,0.91-1.03,1.29c-0.78,0.75-0.82,0.28-1.31-0.52c-1.45-2.4-2.01-5.68-2.37-8.42
				c-0.41-3.16-0.34-6.32,0.13-9.47c0.13-0.86-3.61-1.09-3.78,0c-0.53,3.49-0.57,7.02,0,10.51c0.44,2.71,1.05,6.76,3.13,8.77
				c1.58,1.52,4.42,1.6,6.32,0.68c2.46-1.19,3.63-4.14,4.77-6.45c1.92-3.9,3.55-7.92,5.09-11.98c1.96-0.11,3.91-0.42,5.75-0.74
				c2.68-0.46,5.34-1.1,8.01-1.6c-0.56,4.55-1.01,9.1-1.13,13.7c-0.15,5.89-0.57,15.7,5.76,18.91c1.73,0.88,3.99,1,5.86,0.57
				c1.77-0.4,2.71-1.49,3.7-2.91c2.05-2.96,3.48-6.04,4.84-9.37c2.95-7.22,4.87-14.82,8.13-21.91
				C109.77,39.25,109.78,39.23,109.79,39.22z M85.35,20.41c-0.66,3.78-1.11,7.64-1.63,11.44c-0.3,2.23-0.61,4.45-0.9,6.68
				c-3.99,0.67-7.92,1.69-11.96,2.24c-0.46,0.06-0.92,0.12-1.4,0.17c2.74-7.32,5.27-14.72,8.74-21.73c1.39-2.8,2.92-5.53,4.67-8.12
				c0.84-1.25,1.7-2.61,2.76-3.69c0.09-0.09,0.2-0.21,0.31-0.33C86,7.2,86.1,7.36,86.18,7.64c0.23,0.81,0.32,1.67,0.37,2.5
				C86.73,13.57,85.94,17.06,85.35,20.41z"/>
		</g>
		<g>
			<path class="st0" d="M188.13,64.77c-3.3,4.47-6.15,9.23-9.35,13.76c-1.54,2.18-3.16,4.27-4.98,6.22
				c-1.04,1.11-2.13,2.25-3.33,3.19c-0.2,0.16-0.42,0.31-0.63,0.46c-0.1-1.39,0.06-2.94,0.01-3.89c-0.16-3.13-0.11-6.29-0.05-9.41
				c0.12-6.5,0.41-13.06-0.01-19.55c-0.29-4.42-1.17-12.86-7.58-11.66c-2.39,0.45-4.04,2.98-5.41,4.8c-1.6,2.13-2.99,4.41-4.27,6.74
				c-1.4,2.56-2.68,5.19-3.97,7.81c0-0.33-0.01-0.66-0.02-0.98c-0.03-3.66,0.1-7.32,0.18-10.98c0.07-3.31,0.19-7.41-1.1-10.53
				c-1.02-2.47-2.85-5.01-5.7-5.18c-3.13-0.19-4.79,1.84-5.89,4.53c-1.22,3-2.11,6.13-2.83,9.28c-1.47,6.47-2.17,13.08-3.31,19.61
				c-0.66,3.77-1.46,7.53-2.64,11.18c-0.58,1.78-1.29,4.31-2.44,6.39c-0.03-1.61-0.15-3.22-0.16-4.76
				c-0.03-3.83,0.02-7.67,0.02-11.5c0-7.73,0.49-15.67-0.28-23.37c-0.55-5.56-1.89-13.93-8.9-14.16c-3.89-0.12-8.21,2.59-9.45,6.29
				c0.47-0.15,1-0.23,1.57-0.23c0.82,0,1.53,0.18,2.14,0.46c0.02-0.07,0.05-0.14,0.1-0.2c0.12-0.23,0.27-0.45,0.43-0.66
				c0.09-0.13,0.18-0.26,0.27-0.39c0.06-0.08,0.12-0.14,0.19-0.21c0.03-0.05,0.06-0.08,0.1-0.12c0.02-0.05,0.05-0.1,0.09-0.13
				c0.21-0.35,0.44-0.69,0.71-1c0.83-0.94,2.75-2.76,4.15-2c1.13,0.6,1.26,2.07,1.29,3.19c0.2,5.96-0.68,12.1-1.15,18.04
				c-0.5,6.35-1,12.71-1.2,19.08c-0.1,3.07-0.17,6.13-0.23,9.2c-0.06,3.28-0.44,6.59,1.1,9.61c0.86,1.68,7.18,1.7,8.02,0
				c0.48-0.99,0.78-2.04,0.95-3.11c2.08-1.07,3.23-2.93,4.22-5.05c1.23-2.63,2.19-5.4,2.97-8.19c1.67-5.96,2.5-12.1,3.48-18.19
				c1.01-6.22,2.13-12.53,4.52-18.39c0.25-0.62,0.52-1.24,0.85-1.83c0.05-0.1,0.35-0.51,0.65-0.92c0.04,0.2,0.1,0.43,0.11,0.54
				c0.04,0.85-0.24,1.7-0.41,2.52c-0.65,3.25-1.29,6.55-1.71,9.83c-0.49,3.9-1,7.78-1.11,11.71c-0.05,1.82,0,3.64,0.26,5.44
				c0.31,2.16,1.47,3.86,2.52,5.74c0.78,1.4,6.7,1.54,6.94-0.35c0.11-0.87,0.31-1.7,0.48-2.53c2.44-4.21,4.48-8.62,6.75-12.92
				c1.2-2.28,2.47-4.53,3.92-6.67c0.69-1.02,1.41-2.02,2.18-2.98c0.13-0.16,0.29-0.37,0.46-0.6c-0.31,2.38-0.86,5.54-0.92,5.92
				c-0.49,3.36-0.88,6.77-1.21,10.15c-0.66,6.61-1.32,13.43-0.55,20.06c0.32,2.8,1.48,5.41,3.72,7.2c2.13,1.7,5.9,1.99,8.33,0.77
				c2.05-1.03,3.82-3.27,5.38-4.91c1.86-1.95,3.5-4.09,5.09-6.27c3.68-5.04,6.79-10.47,10.47-15.52
				C192.53,64.4,188.81,63.84,188.13,64.77z"/>
		</g>
	</g>
	<path class="st1" d="M15.73,91.62c1.06,0.5,1.86,1.06,2.41,1.67c0.44,0.51,0.8,1.09,1.08,1.75c0.28,0.66,0.42,1.45,0.42,2.37
		c0,0.68-0.15,1.39-0.46,2.13c-0.31,0.74-0.71,1.34-1.2,1.79c-0.52,0.49-1.01,0.89-1.47,1.2s-1.08,0.56-1.86,0.75
		c-0.78,0.19-1.77,0.29-2.97,0.29c-0.91,0-1.73-0.1-2.46-0.31c-0.73-0.21-1.1-0.56-1.1-1.05c0-0.2,0.09-0.36,0.27-0.47
		s0.38-0.17,0.59-0.17c0.12,0,0.2,0.01,0.24,0.02c0.09-0.88,0.14-1.81,0.14-2.8c0-1.11-0.03-2.02-0.08-2.75
		c-0.05-0.73-0.13-1.45-0.22-2.17c-0.01-0.09-0.04-0.35-0.09-0.78c-0.05-0.43-0.07-0.86-0.07-1.3c0-0.28,0.14-0.52,0.42-0.71
		c0.28-0.19,0.57-0.29,0.86-0.29c0.17,0,0.41,0.01,0.7,0.04c0.24,0.03,0.42,0.04,0.54,0.04C13.24,90.87,14.67,91.12,15.73,91.62z
		 M12.42,101.77c0.88,0,1.71-0.18,2.5-0.55c0.79-0.37,1.42-0.88,1.9-1.54s0.72-1.42,0.72-2.29c0-0.91-0.16-1.68-0.48-2.32
		c-0.32-0.64-0.81-1.17-1.48-1.58c-0.49-0.31-1.1-0.53-1.82-0.67c-0.72-0.14-1.59-0.21-2.6-0.21c0,0.32,0.02,0.72,0.06,1.2
		c0,0.16,0.01,0.44,0.04,0.84c0.08,1.55,0.12,2.79,0.12,3.74c0,1.37-0.07,2.47-0.22,3.3C11.48,101.74,11.9,101.77,12.42,101.77z"/>
	<path class="st1" d="M23.66,91.08c0.35,0.21,0.52,0.52,0.52,0.93c0,0.31-0.14,0.55-0.43,0.73c-0.29,0.18-0.63,0.27-1.03,0.27
		c-0.39,0-0.65-0.1-0.8-0.3c-0.15-0.2-0.22-0.41-0.22-0.62c0-0.4,0.04-0.73,0.13-1c0.09-0.27,0.29-0.39,0.61-0.38
		C22.91,90.75,23.32,90.87,23.66,91.08z M24.04,99.57v0.58c0,0.52,0.02,1.01,0.05,1.47s0.08,0.92,0.13,1.39
		c-0.01,0.13-0.11,0.27-0.3,0.41c-0.19,0.14-0.35,0.21-0.5,0.21c-0.25,0-0.51-0.05-0.77-0.15c-0.26-0.1-0.42-0.22-0.47-0.37
		c-0.08-0.43-0.12-0.81-0.12-1.14c0-1.09-0.03-2.32-0.1-3.68c-0.05-1.2-0.08-2.04-0.08-2.52c0-0.24,0.12-0.45,0.36-0.62
		c0.24-0.17,0.49-0.26,0.76-0.26c0.39,0,0.66,0.09,0.81,0.26c0.15,0.17,0.23,0.45,0.23,0.82V99.57z"/>
	<path class="st1" d="M32.77,99.42c0.31,0.18,0.52,0.39,0.63,0.63c0.11,0.24,0.16,0.57,0.16,1c0,0.48-0.14,0.9-0.42,1.27
		c-0.28,0.37-0.64,0.65-1.08,0.85c-0.32,0.15-0.71,0.26-1.17,0.34s-0.82,0.12-1.09,0.12s-0.61-0.04-1.03-0.12s-0.71-0.15-0.87-0.22
		c-0.41-0.24-0.77-0.53-1.07-0.88c-0.3-0.35-0.45-0.7-0.45-1.06c0-0.27,0.09-0.48,0.26-0.63c0.17-0.15,0.4-0.23,0.68-0.23
		c0.13,0,0.27,0.05,0.42,0.15c0.15,0.1,0.25,0.2,0.3,0.31c0.15,0.35,0.39,0.61,0.74,0.78c0.35,0.17,0.7,0.26,1.06,0.26
		c0.47,0,0.9-0.08,1.3-0.23c0.4-0.15,0.6-0.36,0.6-0.63c0-0.12-0.03-0.22-0.09-0.29s-0.14-0.15-0.25-0.23
		c-0.19-0.13-0.47-0.24-0.84-0.33c-0.37-0.09-0.61-0.14-0.72-0.17c-0.55-0.12-1.08-0.3-1.6-0.54c-0.52-0.25-0.93-0.55-1.24-0.9
		c-0.31-0.35-0.46-0.79-0.46-1.34c0-0.36,0.13-0.74,0.4-1.13c0.27-0.39,0.57-0.67,0.9-0.83c0.24-0.09,0.64-0.19,1.21-0.3
		c0.57-0.11,0.95-0.16,1.15-0.16c0.31,0,0.64,0.03,1,0.09c0.36,0.06,0.63,0.16,0.82,0.29c0.36,0.21,0.65,0.44,0.88,0.67
		s0.34,0.5,0.34,0.79c0,0.15-0.03,0.3-0.1,0.47c-0.07,0.17-0.15,0.27-0.24,0.31c-0.2,0.09-0.43,0.14-0.7,0.14
		c-0.12,0-0.22-0.03-0.29-0.1c-0.07-0.07-0.17-0.17-0.29-0.32c-0.15-0.23-0.29-0.36-0.42-0.4c-0.16-0.04-0.39-0.09-0.7-0.15
		c-0.31-0.06-0.51-0.09-0.62-0.09c-0.31,0-0.62,0.09-0.95,0.26c-0.33,0.17-0.49,0.37-0.49,0.6c0,0.12,0.05,0.21,0.15,0.28
		s0.21,0.13,0.32,0.18c0.11,0.05,0.19,0.09,0.23,0.1c0.28,0.13,0.59,0.25,0.93,0.34c0.34,0.09,0.55,0.15,0.63,0.18
		c0.72,0.17,1.2,0.34,1.44,0.5C32.25,99.12,32.46,99.24,32.77,99.42z"/>
	<path class="st1" d="M35.78,96.94c0.36-0.54,0.86-1.05,1.5-1.53c0.19-0.13,0.5-0.25,0.94-0.35c0.44-0.1,0.83-0.15,1.16-0.15
		c0.4,0,0.82,0.08,1.27,0.25s0.81,0.36,1.09,0.57c0.49,0.36,0.83,0.78,1.02,1.25c0.19,0.47,0.28,1.04,0.28,1.69
		c0,0.28-0.16,0.55-0.47,0.81c-0.31,0.26-0.65,0.39-1.01,0.39l-0.76-0.02c-0.39,0-0.94,0.01-1.66,0.04l-0.42,0.02
		c-0.29,0.03-0.51,0.04-0.66,0.04c-0.21,0-0.51-0.03-0.88-0.08c0.05,0.63,0.29,1.12,0.7,1.47c0.41,0.35,0.86,0.53,1.34,0.53
		c0.84,0,1.43-0.17,1.76-0.5c0.28-0.2,0.47-0.33,0.56-0.38c0.09-0.05,0.24-0.08,0.44-0.08c0.21,0,0.4,0.1,0.56,0.3
		c0.16,0.2,0.24,0.4,0.24,0.6c0,0.23-0.14,0.46-0.41,0.69c-0.27,0.23-0.64,0.48-1.11,0.73c-0.25,0.11-0.6,0.2-1.04,0.28
		s-0.81,0.12-1.1,0.12c-0.47,0-0.99-0.14-1.56-0.41c-0.57-0.27-1-0.58-1.28-0.91c-0.28-0.33-0.52-0.81-0.73-1.42
		c-0.21-0.61-0.31-1.25-0.31-1.92C35.24,98.16,35.42,97.48,35.78,96.94z M41.3,98.33c-0.03-0.39-0.15-0.7-0.36-0.95
		c-0.21-0.25-0.51-0.46-0.88-0.63c-0.12-0.05-0.23-0.09-0.32-0.12s-0.2-0.04-0.32-0.04c-0.61,0-1.13,0.17-1.55,0.5
		c-0.42,0.33-0.67,0.76-0.75,1.28c0.67,0.04,1.37,0.06,2.1,0.06C40.17,98.43,40.86,98.4,41.3,98.33z"/>
	<path class="st1" d="M54.06,102.01c0.07,0.03,0.17,0.06,0.31,0.1c0.14,0.04,0.25,0.08,0.32,0.12c0.07,0.04,0.11,0.1,0.11,0.18
		c0.01,0.32-0.1,0.58-0.35,0.79c-0.25,0.21-0.54,0.31-0.87,0.31c-0.52,0-0.93-0.14-1.22-0.42c-0.29-0.28-0.51-0.71-0.64-1.28
		c-0.05-0.23-0.08-0.54-0.08-0.94c0-0.23,0.01-0.59,0.04-1.1c0.03-0.53,0.04-0.96,0.04-1.28c0-0.47-0.13-0.88-0.39-1.23
		c-0.26-0.35-0.62-0.53-1.09-0.53c-0.28,0-0.57,0.08-0.88,0.25c-0.31,0.17-0.52,0.37-0.64,0.61c-0.2,0.39-0.34,0.81-0.42,1.26
		c-0.15,0.8-0.22,1.63-0.22,2.5c0,0.41,0.01,0.73,0.02,0.96c0,0.05,0,0.14,0.01,0.27c0.01,0.13,0,0.26-0.03,0.4
		c-0.03,0.14-0.09,0.28-0.18,0.41c-0.07,0.07-0.17,0.12-0.31,0.17c-0.14,0.05-0.27,0.07-0.39,0.07c-0.19,0-0.42-0.08-0.7-0.24
		c-0.28-0.16-0.44-0.34-0.48-0.54L46,102.51c0-0.12,0.01-0.26,0.04-0.42c0.16-0.93,0.24-1.75,0.24-2.44c0-0.31-0.01-0.55-0.02-0.72
		l-0.02-0.94c0-0.32-0.08-0.63-0.24-0.93c-0.16-0.3-0.35-0.45-0.56-0.45c-0.07,0-0.16,0.02-0.28,0.07c-0.12,0.05-0.22,0.07-0.3,0.07
		c-0.13,0-0.28-0.07-0.43-0.2c-0.15-0.13-0.23-0.27-0.23-0.42c0-0.28,0.09-0.51,0.28-0.68c0.2-0.16,0.4-0.29,0.59-0.38
		c0.19-0.09,0.42-0.14,0.67-0.14c0.21,0,0.39,0.02,0.52,0.06s0.31,0.13,0.54,0.26c0.12,0.07,0.26,0.21,0.42,0.44
		c0.16,0.23,0.29,0.55,0.4,0.96c0.35-0.64,0.78-1.09,1.29-1.35s1.17-0.39,1.97-0.39c0.31,0,0.64,0.1,0.99,0.3
		c0.35,0.2,0.66,0.43,0.91,0.7c0.24,0.29,0.44,0.66,0.6,1.09s0.24,0.82,0.24,1.17c0,0.2-0.01,0.53-0.04,0.98
		c-0.04,0.36-0.06,0.74-0.06,1.14C53.52,101.22,53.7,101.8,54.06,102.01z M46.48,92.07c0,0.17,0.07,0.31,0.22,0.42
		c0.15,0.11,0.29,0.16,0.42,0.16c0.33,0,0.61-0.15,0.82-0.46c0.21-0.32,0.52-0.48,0.92-0.48c0.12,0,0.23,0.03,0.33,0.08
		c0.1,0.05,0.23,0.14,0.39,0.26c0.25,0.19,0.49,0.33,0.7,0.42c0.21,0.09,0.49,0.14,0.84,0.14c0.31,0,0.61-0.08,0.91-0.25
		c0.3-0.17,0.55-0.38,0.74-0.64c0.19-0.26,0.29-0.52,0.29-0.79c0-0.2-0.07-0.35-0.21-0.45c-0.14-0.1-0.3-0.15-0.47-0.15
		c-0.15,0-0.27,0.03-0.36,0.09c-0.09,0.06-0.18,0.15-0.26,0.27c-0.01,0.03-0.04,0.08-0.09,0.16c-0.05,0.08-0.11,0.15-0.19,0.22
		c-0.08,0.07-0.19,0.1-0.32,0.1c-0.24,0.01-0.55-0.11-0.92-0.38c-0.47-0.32-0.95-0.48-1.46-0.48c-0.33,0-0.68,0.08-1.04,0.23
		c-0.36,0.15-0.66,0.36-0.9,0.63C46.6,91.44,46.48,91.74,46.48,92.07z"/>
	<path class="st1" d="M64.84,103.33c-0.32,0.2-0.61,0.3-0.88,0.3c-0.49,0-0.89-0.06-1.19-0.19c-0.3-0.13-0.58-0.36-0.85-0.71
		c-0.33,0.31-0.8,0.54-1.4,0.69c-0.6,0.15-1.15,0.23-1.66,0.23c-0.83,0-1.51-0.22-2.05-0.67c-0.54-0.45-0.81-1.1-0.81-1.97
		c0-0.37,0.11-0.75,0.34-1.13c0.23-0.38,0.51-0.68,0.84-0.91c0.36-0.24,0.77-0.4,1.22-0.49c0.45-0.09,0.98-0.13,1.58-0.13
		c0.28,0,0.61,0.05,1,0.16s0.69,0.22,0.92,0.34v-0.32c0-0.72-0.18-1.22-0.53-1.49c-0.35-0.27-0.92-0.41-1.69-0.41
		c-0.24,0-0.46,0.04-0.65,0.11c-0.19,0.07-0.42,0.18-0.67,0.31c-0.24,0.13-0.47,0.2-0.68,0.2c-0.19,0-0.37-0.08-0.54-0.23
		s-0.26-0.32-0.26-0.49c0-0.56,0.35-0.97,1.05-1.23s1.42-0.39,2.15-0.39c0.37,0,0.8,0.08,1.28,0.23s0.89,0.36,1.22,0.63
		c0.4,0.33,0.71,0.73,0.93,1.2c0.22,0.47,0.33,0.97,0.33,1.52c0,0.17-0.01,0.43-0.04,0.78c-0.03,0.37-0.04,0.69-0.04,0.96
		l-0.02,0.54c-0.03,0.29-0.04,0.53-0.04,0.7c0,0.16,0.06,0.3,0.17,0.41s0.25,0.17,0.41,0.17l0.56-0.02c0.15,0,0.26,0.06,0.35,0.17
		c0.09,0.11,0.13,0.24,0.13,0.39C65.32,102.88,65.16,103.13,64.84,103.33z M60.3,101.89c0.39-0.12,0.85-0.34,1.4-0.66
		c0.05-0.23,0.09-0.53,0.1-0.9c-0.73-0.35-1.34-0.52-1.82-0.52c-0.45,0-0.82,0.02-1.1,0.05c-0.28,0.03-0.53,0.15-0.76,0.35
		c-0.23,0.2-0.34,0.52-0.34,0.96c0,0.25,0.12,0.47,0.37,0.64c0.25,0.17,0.48,0.26,0.71,0.26C59.44,102.07,59.92,102.01,60.3,101.89z
		"/>
	<path class="st1" d="M74.11,103.2c-0.25-0.17-0.46-0.35-0.65-0.54c-0.19-0.19-0.31-0.32-0.38-0.39c-0.28,0.4-0.69,0.73-1.22,0.98
		s-1.05,0.38-1.54,0.38c-0.76,0-1.43-0.16-2.02-0.48c-0.59-0.32-1.04-0.76-1.36-1.31c-0.32-0.55-0.48-1.17-0.48-1.85
		c0-0.64,0.08-1.26,0.23-1.85c0.15-0.59,0.36-1.09,0.63-1.49c0.36-0.51,0.84-0.91,1.45-1.2c0.61-0.29,1.21-0.44,1.81-0.44
		c0.36,0,0.7,0.07,1.02,0.2s0.6,0.3,0.84,0.5c0-0.88-0.01-1.43-0.02-1.66v-0.44c0-1.25,0.08-2.17,0.24-2.74
		c0.15-0.56,0.51-0.84,1.08-0.84c0.31,0,0.53,0.07,0.68,0.2c0.15,0.13,0.22,0.39,0.22,0.76c0,0.13-0.03,0.5-0.1,1.1
		c-0.15,1.49-0.22,2.99-0.22,4.48c0,1.25,0.02,2.18,0.07,2.79c0.05,0.61,0.15,1.09,0.3,1.45c0.15,0.36,0.4,0.68,0.73,0.96
		c0.2,0.16,0.34,0.29,0.43,0.4c0.09,0.11,0.13,0.25,0.13,0.42c0,0.21-0.11,0.41-0.32,0.59c-0.21,0.18-0.47,0.27-0.76,0.27
		C74.62,103.45,74.36,103.37,74.11,103.2z M71.83,101.34c0.34-0.45,0.51-1.02,0.51-1.71l-0.02-1.12c-0.01-0.21-0.02-0.5-0.02-0.86
		c-0.49-0.59-1.03-0.88-1.6-0.88c-0.39,0-0.75,0.1-1.09,0.3c-0.34,0.2-0.62,0.49-0.83,0.88c-0.23,0.44-0.34,1.11-0.34,2
		c0,0.61,0.18,1.11,0.54,1.49s0.79,0.57,1.28,0.57C70.97,102.01,71.49,101.79,71.83,101.34z"/>
	<path class="st1" d="M85.5,97.94c0.07,0.35,0.1,0.67,0.1,0.95c0,0.52-0.11,1.26-0.34,2.22c-0.92,1.68-2.28,2.52-4.08,2.52
		c-0.67,0-1.35-0.22-2.04-0.66c-0.69-0.44-1.17-0.95-1.44-1.52c-0.36-1.15-0.54-1.87-0.54-2.18c0-0.53,0.12-1.1,0.35-1.7
		c0.23-0.6,0.53-1.12,0.89-1.56c0.23-0.31,0.63-0.57,1.22-0.79s1.12-0.33,1.6-0.33c0.93,0,1.73,0.18,2.38,0.53s1.2,0.92,1.64,1.71
		C85.35,97.32,85.44,97.59,85.5,97.94z M83.6,99.01c0-0.39-0.07-0.77-0.21-1.14c-0.14-0.37-0.34-0.69-0.61-0.96
		c-0.03-0.03-0.1-0.07-0.22-0.13c-0.12-0.06-0.28-0.12-0.49-0.18c-0.21-0.06-0.44-0.09-0.71-0.09c-0.75,0-1.29,0.3-1.64,0.9
		c-0.35,0.6-0.52,1.28-0.52,2.04c0,0.13,0.04,0.39,0.11,0.76s0.14,0.61,0.19,0.7c0.04,0.09,0.14,0.22,0.31,0.39
		c0.17,0.17,0.37,0.31,0.62,0.44c0.25,0.13,0.5,0.19,0.77,0.19c0.6,0,1.08-0.14,1.44-0.43c0.36-0.29,0.65-0.67,0.86-1.15
		C83.57,100.18,83.6,99.73,83.6,99.01z"/>
	<path class="st1" d="M90.06,103.35c-0.16,0.17-0.37,0.26-0.62,0.26c-0.4,0-0.69-0.08-0.88-0.23c-0.19-0.15-0.28-0.44-0.28-0.85
		c0-0.56,0.03-1.17,0.1-1.84c0.05-0.77,0.08-1.37,0.08-1.78c0-0.21-0.01-0.48-0.04-0.8c-0.03-0.29-0.04-0.51-0.04-0.66
		c-0.04-0.23-0.13-0.41-0.27-0.54c-0.14-0.13-0.36-0.25-0.65-0.34c-0.12-0.05-0.22-0.14-0.3-0.27s-0.12-0.24-0.12-0.35
		c0-0.31,0.12-0.54,0.36-0.7c0.24-0.16,0.53-0.24,0.88-0.24c0.39,0,0.72,0.13,1,0.4c0.28,0.27,0.49,0.6,0.64,1
		c0.31-0.44,0.68-0.79,1.13-1.06s0.88-0.4,1.31-0.4c0.55,0,1.01,0.09,1.39,0.27s0.57,0.49,0.57,0.93c0,0.25-0.11,0.52-0.33,0.79
		c-0.22,0.27-0.44,0.41-0.67,0.41c-0.17,0-0.38-0.08-0.62-0.24c-0.09-0.07-0.2-0.12-0.31-0.17c-0.11-0.05-0.23-0.07-0.35-0.07
		c-0.21,0-0.41,0.03-0.6,0.1c-0.19,0.07-0.31,0.15-0.38,0.24c-0.21,0.33-0.37,0.63-0.47,0.9c-0.1,0.27-0.15,0.55-0.15,0.86
		c0,0.23-0.01,0.41-0.02,0.54l-0.02,1.14l0.02,0.76c0,0.56-0.03,1.01-0.08,1.34C90.31,102.98,90.22,103.18,90.06,103.35z"/>
	<path class="st1" d="M102.06,103.42c-0.24-0.14-0.5-0.4-0.78-0.79c-0.35,0.31-0.86,0.55-1.55,0.74c-0.69,0.19-1.28,0.28-1.77,0.28
		c-0.81,0-1.47-0.22-1.97-0.67c-0.5-0.45-0.75-1.1-0.75-1.97c0-0.37,0.1-0.72,0.31-1.03c0.21-0.31,0.48-0.59,0.81-0.83
		c0.37-0.25,0.82-0.45,1.33-0.6c0.51-0.15,0.98-0.22,1.41-0.22c0.72,0,1.36,0.07,1.92,0.2v-0.02c0-0.72-0.18-1.22-0.53-1.49
		c-0.35-0.27-0.92-0.41-1.69-0.41c-0.49,0-0.92,0.22-1.28,0.66c-0.13,0.17-0.41,0.26-0.84,0.26c-0.21,0-0.37-0.09-0.47-0.27
		s-0.15-0.36-0.15-0.55c0-0.39,0.16-0.72,0.49-1s0.72-0.49,1.19-0.63c0.47-0.14,0.9-0.21,1.3-0.21c0.39,0,0.85,0.08,1.38,0.24
		c0.53,0.16,0.97,0.37,1.3,0.64c0.4,0.35,0.71,0.75,0.93,1.21c0.22,0.46,0.33,0.96,0.33,1.51c0,0.17-0.01,0.43-0.04,0.78
		c-0.03,0.4-0.04,0.73-0.04,0.98c0,0.12-0.01,0.27-0.04,0.46c-0.03,0.24-0.04,0.44-0.04,0.6c0,0.17,0.05,0.34,0.16,0.5
		c0.11,0.16,0.25,0.29,0.44,0.4c0.17,0.09,0.29,0.19,0.34,0.3c0.05,0.11,0.08,0.23,0.08,0.36c0,0.13-0.08,0.3-0.25,0.49
		c-0.17,0.19-0.33,0.29-0.49,0.29C102.65,103.63,102.3,103.56,102.06,103.42z M97.72,100.11c-0.4,0.2-0.6,0.55-0.6,1.06
		c0,0.25,0.09,0.47,0.27,0.64c0.18,0.17,0.38,0.26,0.59,0.26c0.57,0,1.05-0.06,1.44-0.18s0.85-0.34,1.4-0.66
		c0.07-0.21,0.11-0.51,0.12-0.9c0-0.15,0.01-0.26,0.02-0.34c-0.72-0.12-1.34-0.18-1.86-0.18S98.12,99.91,97.72,100.11z"/>
	<path class="st1" d="M110.76,110.02c-0.41-0.19-0.89-0.29-1.44-0.29c-1.09,0-2.03,0.28-2.82,0.84c-0.6,0.44-1.05,1.01-1.34,1.72
		c-0.29,0.71-0.44,1.5-0.44,2.38c0,0.84,0.19,1.58,0.58,2.21c0.39,0.63,0.89,1.12,1.5,1.45c0.61,0.33,1.25,0.5,1.92,0.5
		c0.67,0,1.24-0.1,1.73-0.31c0.49-0.21,0.88-0.48,1.17-0.81c0.45-0.57,0.68-1.33,0.68-2.28c0-0.13-0.11-0.23-0.32-0.28
		c-0.21-0.05-0.52-0.08-0.92-0.08l-1.44,0.02c-0.39,0-0.69-0.07-0.92-0.22c-0.23-0.15-0.34-0.33-0.34-0.56
		c0-0.32,0.11-0.56,0.32-0.71c0.21-0.15,0.5-0.23,0.86-0.23c0.43,0,1,0.03,1.72,0.08c0.72,0.05,1.24,0.08,1.56,0.08
		c0.47,0,0.84,0.15,1.13,0.44c0.29,0.29,0.43,0.72,0.43,1.28c0,0.52-0.11,1.13-0.34,1.82c-0.23,0.69-0.55,1.31-0.96,1.86
		c-0.4,0.53-0.99,0.94-1.77,1.21c-0.78,0.27-1.64,0.41-2.59,0.41c-0.79,0-1.55-0.13-2.28-0.38s-1.35-0.61-1.84-1.06
		c-0.61-0.57-1.1-1.26-1.45-2.05c-0.35-0.79-0.53-1.58-0.53-2.37c0-1.15,0.27-2.26,0.81-3.35s1.27-1.93,2.19-2.53
		c0.4-0.27,0.96-0.49,1.68-0.66c0.72-0.17,1.38-0.26,1.98-0.26c0.93,0,1.75,0.14,2.46,0.43c0.71,0.29,1.25,0.7,1.62,1.23
		c0.16,0.24,0.24,0.45,0.24,0.64c0,0.21-0.09,0.41-0.28,0.6c-0.19,0.19-0.37,0.28-0.56,0.28c-0.08,0-0.17-0.01-0.28-0.04
		c-0.11-0.03-0.19-0.06-0.24-0.1C111.67,110.52,111.17,110.21,110.76,110.02z"/>
	<path class="st1" d="M119.18,120.35c-0.17,0.17-0.39,0.26-0.64,0.26c-0.4,0-0.69-0.08-0.88-0.23c-0.19-0.15-0.28-0.44-0.28-0.85
		c0-0.49-0.01-1.14-0.04-1.94c-0.03-0.67-0.04-1.23-0.04-1.68c0-0.21,0.01-0.49,0.04-0.84c0.03-0.32,0.04-0.56,0.04-0.72
		c-0.04-0.25-0.14-0.46-0.3-0.63c-0.16-0.17-0.37-0.25-0.62-0.25c-0.12,0-0.22-0.06-0.3-0.17c-0.08-0.11-0.12-0.23-0.12-0.35
		c0-0.31,0.12-0.54,0.37-0.7c0.25-0.16,0.54-0.24,0.89-0.24c0.72,0,1.22,0.43,1.5,1.28c0.35-0.4,0.74-0.72,1.19-0.97
		c0.45-0.25,0.88-0.37,1.29-0.37c0.49,0,0.94,0.13,1.35,0.4s0.61,0.63,0.61,1.08c0,0.25-0.11,0.51-0.33,0.78
		c-0.22,0.27-0.44,0.4-0.67,0.4c-0.12,0-0.22-0.03-0.31-0.09c-0.09-0.06-0.19-0.15-0.31-0.27c-0.13-0.13-0.25-0.23-0.34-0.29
		c-0.09-0.06-0.2-0.09-0.32-0.09c-0.21,0-0.41,0.03-0.6,0.1c-0.19,0.07-0.31,0.15-0.38,0.24c-0.21,0.33-0.37,0.63-0.47,0.9
		c-0.1,0.27-0.15,0.55-0.15,0.86c0,0.23-0.01,0.41-0.02,0.54l-0.02,1.14c0,0.17,0.01,0.37,0.02,0.58c0.01,0.21,0.03,0.37,0.04,0.48
		c0.04,0.36,0.06,0.71,0.06,1.04C119.44,119.98,119.35,120.18,119.18,120.35z"/>
	<path class="st1" d="M133.05,120.33c-0.31,0.2-0.6,0.3-0.87,0.3c-0.51,0-0.91-0.06-1.21-0.19c-0.3-0.13-0.58-0.36-0.83-0.71
		c-0.35,0.31-0.82,0.54-1.42,0.69c-0.6,0.15-1.15,0.23-1.66,0.23c-0.83,0-1.51-0.22-2.04-0.67c-0.53-0.45-0.8-1.1-0.8-1.97
		c0-0.37,0.1-0.72,0.3-1.03c0.2-0.31,0.47-0.59,0.82-0.83c0.39-0.25,0.83-0.45,1.32-0.59c0.49-0.14,1.01-0.21,1.54-0.21
		c0.28,0,0.61,0.05,1,0.16s0.69,0.22,0.9,0.34v-0.32c0-0.72-0.17-1.22-0.52-1.49s-0.91-0.41-1.68-0.41c-0.23,0-0.45,0.05-0.67,0.14
		c-0.22,0.09-0.47,0.22-0.75,0.38c-0.37,0.2-0.73,0.3-1.06,0.3c-0.12,0-0.23-0.08-0.34-0.25c-0.11-0.17-0.16-0.32-0.16-0.45
		c0-0.39,0.18-0.72,0.55-1c0.37-0.28,0.8-0.49,1.31-0.63c0.51-0.14,0.96-0.21,1.36-0.21c0.4,0,0.86,0.08,1.38,0.23
		c0.52,0.15,0.95,0.36,1.28,0.63c0.4,0.35,0.71,0.75,0.93,1.21s0.33,0.96,0.33,1.51c0,0.17-0.01,0.43-0.04,0.78
		c-0.03,0.37-0.04,0.69-0.04,0.96c0,0.12-0.01,0.3-0.04,0.54c-0.03,0.29-0.04,0.53-0.04,0.7c0,0.16,0.06,0.3,0.18,0.41
		s0.26,0.17,0.42,0.17l0.56-0.02c0.15,0,0.26,0.05,0.34,0.16c0.08,0.11,0.12,0.24,0.12,0.4
		C133.52,119.88,133.36,120.13,133.05,120.33z M128.52,118.89c0.39-0.12,0.85-0.34,1.4-0.66c0.05-0.23,0.09-0.53,0.1-0.9
		c-0.73-0.35-1.34-0.52-1.82-0.52c-0.55,0-1.03,0.1-1.46,0.3c-0.43,0.2-0.64,0.55-0.64,1.06c0,0.25,0.11,0.47,0.32,0.64
		c0.21,0.17,0.43,0.26,0.66,0.26C127.65,119.07,128.13,119.01,128.52,118.89z"/>
	<path class="st1" d="M140.16,109.99c-0.17-0.09-0.29-0.23-0.36-0.42c-0.13-0.36-0.28-0.62-0.43-0.77s-0.34-0.23-0.55-0.23
		c-0.13,0-0.26,0.1-0.37,0.3c-0.11,0.2-0.2,0.51-0.25,0.94c-0.09,0.88-0.14,1.55-0.14,2.02c0.2,0.04,0.48,0.06,0.84,0.06
		c0.19,0,0.43-0.01,0.72-0.04l0.54-0.02c0.24,0,0.43,0.05,0.56,0.14c0.13,0.09,0.2,0.25,0.2,0.46c0,0.31-0.09,0.56-0.28,0.76
		c-0.19,0.2-0.41,0.3-0.66,0.3c-0.96,0-1.61,0.05-1.94,0.14c0,0.8,0.04,1.95,0.12,3.44c0,0.23,0.01,0.55,0.04,0.98l0.08,1.54
		c0.03,0.39-0.01,0.66-0.11,0.81c-0.1,0.15-0.31,0.23-0.63,0.23c-0.59,0-0.97-0.35-1.14-1.06c-0.11-0.51-0.19-1.23-0.25-2.17
		c-0.06-0.94-0.09-1.77-0.09-2.49c0-0.37,0.02-0.81,0.06-1.3c-0.03-0.01-0.1-0.02-0.22-0.02s-0.21,0.01-0.26,0.02
		c-0.4,0.03-0.69,0.04-0.88,0.04c-0.12,0-0.24-0.09-0.36-0.26c-0.12-0.17-0.18-0.37-0.18-0.6c0-0.13,0.05-0.26,0.14-0.37
		c0.09-0.11,0.21-0.2,0.34-0.25c0.2-0.11,0.49-0.16,0.86-0.16h0.6c0-1.87,0.21-3.17,0.62-3.9c0.4-0.69,1.06-1.04,1.98-1.04
		c0.43,0,0.84,0.09,1.23,0.26c0.39,0.17,0.71,0.41,0.96,0.72s0.37,0.65,0.37,1.04c0,0.41-0.05,0.69-0.16,0.83s-0.26,0.21-0.46,0.21
		C140.51,110.13,140.33,110.08,140.16,109.99z M144.66,108.08c0.35,0.21,0.52,0.52,0.52,0.93c0,0.31-0.14,0.55-0.43,0.73
		c-0.29,0.18-0.63,0.27-1.03,0.27c-0.39,0-0.66-0.1-0.81-0.3s-0.23-0.41-0.23-0.62c0-0.39,0.05-0.72,0.14-0.99
		c0.09-0.27,0.3-0.4,0.62-0.39C143.91,107.75,144.31,107.87,144.66,108.08z M145.02,116.57v0.58c0,0.43,0.02,0.84,0.05,1.25
		c0.03,0.41,0.07,0.8,0.11,1.17c0,0.08,0.01,0.23,0.04,0.44c-0.01,0.13-0.11,0.27-0.3,0.41s-0.35,0.21-0.5,0.21
		c-0.25,0-0.51-0.05-0.77-0.15c-0.26-0.1-0.42-0.22-0.47-0.37c-0.08-0.43-0.12-0.81-0.12-1.14c0-1.09-0.03-2.32-0.1-3.68l-0.04-0.76
		c-0.01-0.2-0.03-0.45-0.04-0.74c-0.01-0.29-0.02-0.64-0.02-1.04c0-0.24,0.12-0.45,0.37-0.62c0.25-0.17,0.5-0.26,0.77-0.26
		c0.39,0,0.66,0.09,0.81,0.26c0.15,0.17,0.23,0.45,0.23,0.82L145.02,116.57z"/>
	<path class="st1" d="M153.25,114.34c-0.14-0.1-0.28-0.24-0.43-0.41c-0.15-0.17-0.3-0.29-0.47-0.34c-0.17-0.05-0.36-0.08-0.57-0.08
		c-0.39,0-0.76,0.12-1.13,0.35c-0.37,0.23-0.67,0.56-0.9,0.97s-0.35,0.87-0.35,1.38c0,0.56,0.11,1.03,0.33,1.4
		c0.22,0.37,0.57,0.7,1.05,0.98c0.17,0.09,0.38,0.17,0.61,0.22c0.23,0.05,0.44,0.08,0.61,0.08c0.41,0,0.95-0.18,1.6-0.54
		c0.05-0.03,0.16-0.08,0.31-0.15s0.27-0.11,0.35-0.11c0.15,0,0.31,0.07,0.5,0.21c0.19,0.14,0.28,0.31,0.28,0.51
		c0,0.4-0.17,0.74-0.51,1.02c-0.34,0.28-0.76,0.49-1.27,0.62c-0.51,0.13-1.01,0.2-1.5,0.2c-0.79,0-1.52-0.18-2.2-0.54
		c-0.68-0.36-1.22-0.86-1.62-1.5c-0.4-0.64-0.6-1.36-0.6-2.16c0-0.87,0.19-1.65,0.58-2.35c0.39-0.7,0.91-1.25,1.57-1.66
		c0.66-0.41,1.38-0.61,2.15-0.61c0.75,0,1.44,0.15,2.07,0.44c0.63,0.29,0.95,0.74,0.95,1.34c0,0.59-0.3,0.88-0.9,0.88
		C153.56,114.49,153.39,114.44,153.25,114.34z"/>
	<path class="st1" d="M163.2,120.42c-0.24-0.14-0.5-0.4-0.78-0.79c-0.35,0.31-0.86,0.55-1.55,0.74s-1.28,0.28-1.77,0.28
		c-0.81,0-1.47-0.22-1.97-0.67c-0.5-0.45-0.75-1.1-0.75-1.97c0-0.37,0.1-0.72,0.31-1.03c0.21-0.31,0.48-0.59,0.81-0.83
		c0.37-0.25,0.82-0.45,1.33-0.6c0.51-0.15,0.98-0.22,1.41-0.22c0.72,0,1.36,0.07,1.92,0.2v-0.02c0-0.72-0.18-1.22-0.53-1.49
		c-0.35-0.27-0.92-0.41-1.69-0.41c-0.49,0-0.92,0.22-1.28,0.66c-0.13,0.17-0.41,0.26-0.84,0.26c-0.21,0-0.37-0.09-0.47-0.27
		c-0.1-0.18-0.15-0.36-0.15-0.55c0-0.39,0.16-0.72,0.49-1c0.33-0.28,0.72-0.49,1.19-0.63c0.47-0.14,0.9-0.21,1.3-0.21
		c0.39,0,0.85,0.08,1.38,0.24c0.53,0.16,0.97,0.37,1.3,0.64c0.4,0.35,0.71,0.75,0.93,1.21s0.33,0.96,0.33,1.51
		c0,0.17-0.01,0.43-0.04,0.78c-0.03,0.4-0.04,0.73-0.04,0.98c0,0.12-0.01,0.27-0.04,0.46c-0.03,0.24-0.04,0.44-0.04,0.6
		c0,0.17,0.05,0.34,0.16,0.5s0.25,0.29,0.44,0.4c0.17,0.09,0.29,0.19,0.34,0.3c0.05,0.11,0.08,0.23,0.08,0.36
		c0,0.13-0.08,0.3-0.25,0.49c-0.17,0.19-0.33,0.29-0.49,0.29C163.79,120.63,163.44,120.56,163.2,120.42z M158.86,117.11
		c-0.4,0.2-0.6,0.55-0.6,1.06c0,0.25,0.09,0.47,0.27,0.64c0.18,0.17,0.38,0.26,0.59,0.26c0.57,0,1.05-0.06,1.44-0.18
		c0.39-0.12,0.85-0.34,1.4-0.66c0.07-0.21,0.11-0.51,0.12-0.9c0-0.15,0.01-0.26,0.02-0.34c-0.72-0.12-1.34-0.18-1.86-0.18
		C159.72,116.81,159.26,116.91,158.86,117.11z"/>
</g>
</svg>
